<?xml version="1.0" standalone="no"?>
<!DOCTYPE svg PUBLIC "-//W3C//DTD SVG 20010904//EN"
 "http://www.w3.org/TR/2001/REC-SVG-20010904/DTD/svg10.dtd">
<svg version="1.0" xmlns="http://www.w3.org/2000/svg"
 width="1920.000000pt" height="701.000000pt" viewBox="0 0 1920.000000 701.000000"
 preserveAspectRatio="xMidYMid meet">

<g transform="translate(0.000000,701.000000) scale(0.100000,-0.100000)"
fill="#ffffff" stroke="none">
<path d="M888 6363 l-3 -648 -440 -5 -440 -5 -3 -372 -2 -373 442 -2 443 -3 6
-905 c5 -887 6 -907 27 -1000 127 -548 450 -879 979 -1004 172 -40 271 -46
788 -46 l485 0 -2 373 -3 372 -475 6 c-449 5 -479 6 -543 26 -209 66 -339 204
-408 433 l-23 75 -4 838 -3 837 636 0 635 0 0 375 0 375 -635 0 -635 0 0 650
0 650 -410 0 -410 0 -2 -647z"/>
<path d="M15918 5780 c-400 -42 -756 -201 -1032 -460 -75 -70 -204 -227 -262
-317 -311 -487 -388 -1193 -193 -1778 160 -483 485 -859 934 -1082 246 -123
521 -183 833 -183 517 0 957 159 1277 462 98 93 230 257 217 269 -11 10 -690
259 -707 259 -8 0 -22 -12 -31 -26 -28 -42 -152 -132 -240 -175 -204 -99 -511
-133 -753 -83 -373 77 -663 349 -795 744 -35 106 -70 275 -60 291 3 5 620 9
1379 9 1298 0 1373 1 1380 18 14 34 18 405 6 512 -37 317 -138 605 -299 845
-90 135 -274 319 -407 407 -223 148 -445 231 -725 273 -129 19 -404 27 -522
15z m437 -665 c183 -39 326 -110 441 -218 131 -122 216 -269 259 -450 15 -60
25 -115 23 -123 -3 -13 -122 -15 -972 -14 -534 0 -972 2 -974 5 -7 7 26 119
64 219 52 135 118 238 214 336 98 100 190 159 325 206 79 28 129 39 270 58 57
8 280 -4 350 -19z"/>
<path d="M3740 3855 l0 -1855 395 0 395 0 0 1480 0 1480 945 0 c520 0 945 -2
945 -5 0 -7 111 -374 210 -695 45 -146 106 -344 135 -440 29 -96 119 -389 199
-650 81 -261 195 -631 253 -822 l107 -348 418 0 c376 0 418 -2 418 -16 0 -9
-36 -131 -79 -272 -44 -142 -123 -399 -176 -572 -53 -173 -114 -371 -135 -440
-108 -347 -210 -684 -210 -692 0 -10 801 -10 818 1 6 4 67 187 136 406 116
373 440 1417 491 1585 13 41 75 242 138 445 64 204 133 429 155 500 22 72 75
240 117 375 42 135 83 268 92 295 8 28 37 122 65 210 27 88 67 216 88 285 21
69 82 265 135 435 230 737 355 1144 355 1154 0 8 -117 10 -422 9 l-422 -3
-302 -930 c-166 -511 -329 -1013 -362 -1115 -33 -102 -89 -275 -125 -385 -36
-110 -120 -369 -187 -575 -67 -206 -129 -397 -137 -425 -9 -27 -19 -54 -23
-58 -4 -5 -33 72 -65 170 -31 98 -83 259 -115 358 -32 99 -102 315 -155 480
-53 165 -123 381 -155 480 -54 165 -190 589 -415 1290 -48 149 -119 370 -158
493 l-72 222 -1647 0 -1648 0 0 -1855z"/>
<path d="M10350 5695 c0 -8 13 -56 29 -107 16 -51 52 -167 79 -258 28 -91 89
-289 136 -440 179 -583 390 -1270 421 -1375 18 -60 78 -256 133 -435 55 -179
135 -437 177 -575 42 -137 94 -307 116 -378 l40 -127 811 2 811 3 73 220 c99
301 364 1111 529 1620 113 346 218 670 300 920 189 578 305 934 305 939 0 3
-189 6 -419 6 -325 0 -422 -3 -428 -12 -4 -7 -27 -74 -51 -148 -24 -74 -104
-322 -178 -550 -226 -695 -261 -802 -329 -1013 -37 -111 -95 -290 -130 -397
-35 -107 -109 -337 -165 -510 -248 -770 -285 -877 -292 -864 -3 5 -37 108 -76
229 -177 553 -870 2704 -987 3065 l-63 195 -421 3 c-369 2 -421 0 -421 -13z"/>
</g>
</svg>
